<svg width="1440" height="381" viewBox="0 0 1440 381" xmlns="http://www.w3.org/2000/svg"><title>bg-1</title><desc>Created with Sketch.</desc><g opacity=".7" fill="none"><path d="M-84.832 434.791c86.998-85.716 231.017-118.025 432.057-96.927 301.56 31.646 458.518-85.105 704.759-55.247 164.161 19.906 332.169 54.776 504.025 104.611l66.697-294.286c-241.919-33.774-442.963-47.523-603.133-41.247-240.255 9.414-269.563 92.631-658.373 34.719-259.207-38.608-407.884-84.023-446.031-136.245v484.622z" fill-opacity=".3" fill="#0275D8"/><path d="M1536.477 404.609c-87.598-81.765-232.61-112.585-435.035-92.46-303.638 30.188-461.679-81.183-709.618-52.701-165.292 18.988-299.431 60.296-402.416 123.922v-331.287c70.221-5.987 185.968-5.987 347.242 0 241.911 8.981 359.23 75.447 750.72 20.204 260.994-36.829 410.696-65.295 449.106-85.399v417.72z" fill-opacity=".3" fill="#0275D8"/><path d="M2250 254.87s-139.061-125.727-352.959-122.895c-142.53 1.882-260.536 85.972-450.52 70.224-128.292-10.635-281.56-107.489-424.824-105.341-146.321 2.195-299.564 152.157-522.385 158.011-222.82 5.854-414.835-188.452-592.973-193.119-306.04-8.021-517.317 157.783-522.385 140.448v-364.92l2866.046 28.823v388.767z" fill-opacity=".5" fill="#fff" style="mix-blend-mode:overlay" opacity=".2"/><path d="M2416-3.894s-405.119 309.975-765.553 302.96c-287.071-5.59-246.096-170.771-399.801-190.066-153.704-19.296-162.34 90.288-310.815 81.297-148.474-8.991-206.163-142.661-345.109-143.895-135.361-1.198-249.474 178.665-465.912 184.41-216.438 5.745-280.346-121.364-374.704-167.648-146.749-71.967-204.154-83.819-204.154-83.819v-96.997l2866.046-15.698v129.457z" fill-opacity=".5" fill="#fff" style="mix-blend-mode:overlay" opacity=".4"/></g></svg>