<?xml version="1.0" encoding="UTF-8"?>
<svg width="1440px" height="440px" viewBox="0 0 1440 440" version="1.1" xmlns="http://www.w3.org/2000/svg" xmlns:xlink="http://www.w3.org/1999/xlink">
    <!-- Generator: Sketch 49.2 (51160) - http://www.bohemiancoding.com/sketch -->
    <title>bg-1</title>
    <desc>Created with Sketch.</desc>
    <defs></defs>
    <g id="Welcome" stroke="none" stroke-width="1" fill="none" fill-rule="evenodd">
        <g id="bg-feed-1" transform="translate(0.000000, -236.000000)" fill="#FFFFFF">
            <g id="bg-1" transform="translate(-879.522887, 43.000000)">
                <path d="M793.293878,193.208695 C880.292199,278.924474 1024.3112,311.233573 1225.35089,290.135991 C1526.91043,258.489619 1683.86928,375.241489 1930.11024,345.383048 C2094.27088,325.47742 2262.27915,290.606944 2434.13504,240.771621 L2500.832,535.057852 C2258.91307,568.832295 2057.86861,582.58135 1897.69863,576.305017 C1657.44367,566.890518 1628.13591,483.674419 1239.32536,541.586236 C980.118326,580.194114 831.441166,625.608992 793.293878,677.830871 L793.293878,193.208695 Z" id="wave-2" opacity="0.95" transform="translate(1647.062941, 435.519783) scale(-1, 1) translate(-1647.062941, -435.519783) "></path>
                <path d="M879.522887,193.208695 C966.521208,278.924474 1110.54021,311.233573 1311.5799,290.135991 C1613.13944,258.489619 1770.09829,375.241489 2016.33925,345.383048 C2180.49989,325.47742 2348.50815,210.606944 2520.36405,0.771620916 L2587.06101,295.057852 C2403.28035,479.806821 2231.30504,569.043139 2071.13506,562.766806 C1830.88009,553.352307 1714.36492,483.674419 1325.55437,541.586236 C1066.34734,580.194114 917.670175,610.035788 879.522887,631.111257 L879.522887,193.208695 Z" id="wave-1" opacity="0.7"></path>
            </g>
        </g>
    </g>
</svg>