<?xml version="1.0" encoding="UTF-8"?>
<svg width="1700px" height="693px" viewBox="0 0 1700 693" version="1.1" xmlns="http://www.w3.org/2000/svg" xmlns:xlink="http://www.w3.org/1999/xlink">
    <!-- Generator: Sketch 49.2 (51160) - http://www.bohemiancoding.com/sketch -->
    <title>Group</title>
    <desc>Created with Sketch.</desc>
    <defs></defs>
    <g id="Welcome" stroke="none" stroke-width="1" fill="none" fill-rule="evenodd" opacity="0.6">
        <g id="fff" transform="translate(0.000000, -128.000000)">
            <g id="Group" transform="translate(0.000000, 128.000000)">
                <path d="M0,2 L1700,2 L1700,527.651302 C1560.04367,411.366979 1396.10098,381.459728 1208.17193,437.929549 C926.278346,522.634281 929.220133,723.389061 640.627553,689.099435 C510.911338,673.686979 369.061175,590.629786 240.053286,573.984333 C154.048027,562.887365 74.0302652,580.845147 2.69755599e-13,627.85768 L0,2 Z" id="Mask" fill-opacity="0.5" fill="#CCCCCC"></path>
                <path d="M0,2 L1700,2 L1700,462.230156 C1560.04367,360.418266 1396.10098,334.233191 1208.17193,383.674931 C926.278346,457.83754 929.220133,633.60692 640.627553,603.584889 C510.911338,590.090626 369.061175,517.370507 240.053286,502.796703 C154.048027,493.080833 74.0302652,508.803638 2.69755599e-13,549.965117 L0,2 Z" id="Mask" fill-opacity="0.5" fill="#CCCCCC"></path>
                <path d="M0,2 L1700,2 L1700,396.048298 C1560.04367,308.877127 1396.10098,286.457509 1208.17193,328.789445 C926.278346,392.287348 929.220133,542.780801 640.627553,517.075988 C510.911338,505.522222 369.061175,443.259376 240.053286,430.781309 C154.048027,422.462598 74.0302652,435.924437 2.69755599e-13,471.166828 L0,2 Z" id="Mask" fill="#C8D0D8"></path>
                <path d="M0,2 L1700,2 L1700,330.627152 C1560.04367,257.928415 1396.10098,239.230973 1208.17193,274.534827 C926.278346,327.490607 929.220133,452.99866 640.627553,431.561442 C510.911338,421.925868 369.061175,370.000098 240.053286,359.593679 C154.048027,352.656066 74.0302652,363.882928 2.69755599e-13,393.274266 L0,2 Z" id="Mask" fill="#DDDDDD"></path>
                <path d="M0,2 L1700,2 L1700,265.206006 C1560.04367,206.979703 1396.10098,192.004437 1208.17193,220.280208 C926.278346,262.693866 929.220133,363.21652 640.627553,346.046895 C510.911338,338.329515 369.061175,296.740819 240.053286,288.406048 C154.048027,282.849534 74.0302652,291.841419 2.69755599e-13,315.381704 L0,2 Z" id="Mask" fill-opacity="0.5" fill="#4F90DE" opacity="0.5"></path>
                <path d="M0,0 L1700,0 L1700,197.024149 C1560.04367,153.438564 1396.10098,142.228755 1208.17193,163.394722 C926.278346,195.143674 929.220133,270.3904 640.627553,257.537994 C510.911338,251.761111 369.061175,220.629688 240.053286,214.390655 C154.048027,210.231299 74.0302652,216.962219 2.69755599e-13,234.583414 L0,0 Z" id="Mask" fill="#FFFFFF"></path>
            </g>
        </g>
    </g>
</svg>