<svg width="140" height="140" viewBox="0 0 140 140" xmlns="http://www.w3.org/2000/svg"><title>noun_969887_cc</title><desc>Created with Sketch.</desc><g fill-rule="nonzero" fill="#F8DA54"><path d="M113.971 17.823c-3.677-2.479-18.249 1.627-27.605 6.725-3.816 2.079-10.131 3.99-16.241 5.843-2.038.618-4.09 1.233-6.078 1.868-7.178 2.29-13.301 5.363-18.22 8.577-.192-.313-.339-.722-.223-1.189.506-2.031-.574-2.802-.916-2.991-.941-.513-2.113-.18-3.136.901-1.537 1.625-3.104 6.256-3.508 9.321-1.272 1.191-2.464 2.346-3.353 3.427-1.919 2.334-10.787 14.142-7.207 18.461.632.763 1.975.998 3.705.998h.03c4.519 0 12.935-2.553 20.187-8.211l.79.02c5.025 0 11.066-1.689 11.306-3.801.027-.237.075-1.436-1.613-1.732-1.399-.245-2.481-1.12-3.094-1.738 8.222-8.871 18.208-19.117 23.263-19.536 2.861-.24 5.834.953 8.441 2.005 2.718 1.096 4.862 1.964 6.491 1.009 1.57-.922 2.1-2.949 2.661-5.094.489-1.865.994-3.794 2.12-4.624 1.023-.753 3.132-1.747 5.173-2.708 5.018-2.363 7.865-3.795 8.011-5.693.032-.415-.054-1.209-.985-1.837zm-70.538 21.342l.268-.088v.005c-.697 1.205-.347 2.257.226 3.044-1.031.727-1.994 1.456-2.9 2.181.699-2.254 1.731-4.428 2.407-5.142zm16.514 18.724c-1.287.505-3.351 1.059-5.752 1.266.611-.579 1.213-1.175 1.792-1.805l1.223-1.328c.619.611 1.541 1.362 2.737 1.867zm46.002-34.648c-2.241 1.055-4.357 2.052-5.562 2.941-1.793 1.32-2.432 3.76-2.996 5.914-.416 1.592-.849 3.238-1.585 3.67-.63.371-2.65-.443-4.43-1.161-2.707-1.093-6.065-2.451-9.511-2.167-6.073.504-15.676 10.469-27.598 23.442-7.361 8.011-18.109 11.762-23.054 11.775-1.345-.035-1.856-.262-1.95-.365-1.574-1.695 1.718-8.635 7.338-15.469 5.645-6.867 16.697-13.665 28.155-17.321 1.979-.631 4.018-1.249 6.046-1.864 6.508-1.973 12.655-3.837 16.682-6.031 10.034-5.468 22.161-8.089 24.962-6.941-.912.946-4.357 2.569-6.496 3.577zm-9.846 7.662c.304 2.155-5.686-.074-9.351 0-2.336.047 9.041-2.2 9.351 0zm1.182-5.186c.724 2.052-7.016 2.594-10.435 3.773-2.623.904 9.697-5.869 10.435-3.773zM83.39 58.758c-1.486-.719-3.187-.746-5.062-.081-5.041 1.794-10.357 8.345-12.801 13.599-.175.378-.532 1.137-1.036 2.188-4.313 1.84-11.243 5.305-10.716 8.411.293 1.717 2.82 2.497 5.033 2.852-2.993 5.647-6.666 12.127-10.386 17.59-6.694 1.511-12.178 1.244-15.185 1.1-1.421-.069-2.015-.092-2.47.036-.875.247-1.287.754-1.479 1.136-.504 1.008-.077 2.109.372 3.273.32.829.684 1.77.593 2.471-.117.886-1.282 2.727-2.218 4.208-1.777 2.805-2.677 4.327-2.119 5.56.173.383.646 1.059 1.869 1.281.188.034.451.064.79.064 2.051 0 6.898-1.105 14.901-9.157 2.092-2.105 4.291-4.916 6.473-8.077 8.735-2.162 16.609-6.508 23.585-12.979 2.328 4.138 3.619 4.726 4.327 4.726.162 0 .295-.029.401-.055 3.065-.701 3.446-8.735 3.384-13.693.767-1.012 1.525-2.045 2.264-3.122 3.01-4.388 4.368-11.598 3.093-16.415-.631-2.377-1.879-4.077-3.612-4.917zm-41.573 52.881c-8.046 8.095-12.582 8.691-13.669 8.439.238-.722 1.198-2.241 1.862-3.288 1.224-1.933 2.38-3.759 2.561-5.155.169-1.293-.328-2.582-.729-3.618-.159-.413-.387-1.003-.432-1.314.261-.025 1.033.013 1.716.046 4.676.231 9.161-.046 13.454-.819-1.616 2.204-3.221 4.158-4.762 5.709zm14.278-29.208c.233-.896 3.158-2.865 6.78-4.651-.826 1.673-1.811 3.623-2.913 5.745-1.761-.228-3.443-.697-3.868-1.094zm21.809 12.03c-.587-.565-1.664-2.165-2.629-3.907 1.365-1.366 2.693-2.82 3.985-4.357-.162 3.968-.713 7.405-1.356 8.265zm4.076-15.695c-9.866 14.381-20.882 20.825-30.165 23.651 7.713-11.881 14.799-26.936 15.832-29.155 2.273-4.89 7.184-10.86 11.465-12.383.639-.228 1.237-.341 1.787-.341.535 0 1.026.108 1.47.323 1.117.541 1.915 1.689 2.37 3.409 1.103 4.167-.134 10.669-2.76 14.496zm-48.702 37.072c1.203 1.774 10.915-7.987 8.279-6.332.001 0-9.302 4.821-8.279 6.332zm.811-5.654c.086.808 3.054-.033 4.484-.748 2.282-1.14-4.612-.465-4.484.748z"/></g></svg>