<svg width="140" height="140" viewBox="0 0 140 140" xmlns="http://www.w3.org/2000/svg"><title>noun_969887_cc</title><desc>Created with Sketch.</desc><path d="M43.597 59.105c-1.409.636-2.917.959-4.483.959-1.556 0-3.061-.322-4.472-.958-.53-.24-.767-.863-.528-1.394.24-.529.861-.765 1.394-.528 2.284 1.029 4.96 1.023 7.223.001.53-.241 1.154-.003 1.393.527.239.53.004 1.154-.527 1.393zm11.205.959c1.561 0 3.069-.322 4.48-.956.531-.239.768-.862.529-1.393-.24-.53-.863-.768-1.393-.529-2.269 1.021-4.94 1.025-7.222-.002-.533-.237-1.156-.001-1.394.528-.239.531-.002 1.155.528 1.394 1.411.635 2.916.958 4.472.958zm34.526-2.879c-2.267 1.02-4.94 1.026-7.222-.002-.533-.237-1.156-.001-1.394.528-.239.531-.002 1.155.528 1.394 1.411.636 2.917.958 4.472.958 1.562 0 3.07-.322 4.48-.956.531-.239.768-.862.529-1.393-.239-.532-.862-.767-1.393-.529zm28.537-4.96c0 .583-.471 1.054-1.054 1.054-3.213 0-6.088-1.637-7.729-4.238-1.641 2.602-4.514 4.238-7.727 4.238s-6.088-1.637-7.727-4.238c-1.641 2.602-4.517 4.238-7.729 4.238-3.213 0-6.087-1.637-7.727-4.238-1.539 2.44-4.161 4.025-7.132 4.214v4.618c.854-.109 1.693-.333 2.482-.687.529-.239 1.155-.003 1.393.529.239.531.002 1.155-.529 1.393-1.065.479-2.187.779-3.346.898v9.95c1.186.424 2.039 1.546 2.039 2.878s-.854 2.453-2.039 2.877v23.714c0 8.277-6.855 15.009-15.28 15.009-8.425 0-15.28-6.733-15.28-15.009v-11.037l7.188 12.541h-4.987c.787 6.316 6.457 11.398 13.079 11.398 7.139 0 13.172-5.908 13.172-12.902v-23.729c-1.159-.437-1.987-1.549-1.987-2.862 0-1.313.828-2.424 1.987-2.862v-9.957c-1.21-.106-2.384-.406-3.498-.907-.53-.24-.767-.863-.528-1.394.24-.529.86-.765 1.394-.528.838.377 1.728.612 2.631.712v-4.74c-2.59-.425-4.838-1.929-6.216-4.114-1.641 2.602-4.514 4.238-7.727 4.238s-6.088-1.637-7.727-4.238c-1.641 2.602-4.517 4.238-7.729 4.238-3.213 0-6.087-1.637-7.727-4.238-1.641 2.601-4.514 4.238-7.727 4.238-.583 0-1.054-.471-1.054-1.054 0-.583.471-1.054 1.054-1.054 3.107 0 5.807-1.981 6.721-4.931.125-.406.555-.717.972-.73.423-.014.835.256.996.647l.045.083c.914 2.95 3.615 4.931 6.721 4.931s5.807-1.981 6.722-4.931c.129-.414.57-.726.996-.73.433-.004.886.31 1.017.73.914 2.95 3.615 4.931 6.721 4.931 3.107 0 5.807-1.981 6.721-4.931.13-.418.579-.731 1.008-.73.429.001.875.314 1.004.73.761 2.456 2.768 4.222 5.21 4.751v-25.938c0-.583.471-1.054 1.054-1.054.583 0 1.054.471 1.054 1.054v26.07c2.849-.237 5.271-2.126 6.125-4.883.124-.401.548-.711.961-.729.428-.019.844.251 1.006.646l.045.083c.914 2.95 3.615 4.931 6.721 4.931s5.807-1.981 6.722-4.931c.128-.41.564-.722.986-.73.436-.008.895.306 1.026.73.914 2.95 3.615 4.931 6.721 4.931 3.107 0 5.807-1.981 6.721-4.931.126-.41.561-.721.981-.73.42-.011.826.259.985.647l.045.083c.914 2.95 3.616 4.931 6.722 4.931.584 0 1.056.471 1.056 1.054zm-13.312 4.959c-2.261 1.022-4.94 1.027-7.223-.001-.534-.237-1.155-.001-1.394.528-.239.531-.002 1.155.528 1.394 1.411.636 2.917.958 4.472.958 1.566 0 3.074-.322 4.483-.959.531-.239.767-.863.527-1.393s-.862-.768-1.393-.527z" fill-rule="nonzero" fill="#0275D8"/></svg>