<svg width="70" height="70" viewBox="0 0 99 99" xmlns="http://www.w3.org/2000/svg"><title>icon-tariff-4</title><desc>Created with Sketch.</desc><path d="M31.969 83.448h1.323v1.323c0 2.188 1.781 3.969 3.969 3.969h2.646c2.188 0 3.969-1.781 3.969-3.969v-1.323h13.231v1.323c0 2.188 1.781 3.969 3.969 3.969h2.646c2.188 0 3.969-1.781 3.969-3.969v-1.323h1.323c2.188 0 3.969-1.781 3.969-3.969v-63.509c0-2.188-1.781-3.969-3.969-3.969h-37.047c-2.188 0-3.969 1.781-3.969 3.969v63.509c0 2.188 1.781 3.969 3.969 3.969zm9.262 1.323c0 .729-.594 1.323-1.323 1.323h-2.646c-.729 0-1.323-.594-1.323-1.323v-1.323h5.292v1.323zm23.816 0c0 .729-.594 1.323-1.323 1.323h-2.646c-.729 0-1.323-.594-1.323-1.323v-1.323h5.292v1.323zm-34.401-68.801c0-.729.594-1.323 1.323-1.323h37.047c.729 0 1.323.594 1.323 1.323v63.509c0 .729-.594 1.323-1.323 1.323h-37.047c-.729 0-1.323-.594-1.323-1.323v-63.509zm19.847 62.185c9.484 0 17.2-7.716 17.2-17.2 0-9.484-7.716-17.2-17.2-17.2-9.484 0-17.2 7.716-17.2 17.2 0 9.484 7.716 17.2 17.2 17.2zm0-31.755c8.025 0 14.554 6.53 14.554 14.554 0 8.025-6.53 14.554-14.554 14.554-8.025 0-14.554-6.53-14.554-14.554 0-8.025 6.53-14.554 14.554-14.554zm0-5.292c6.565 0 11.908-5.343 11.908-11.908 0-6.565-5.343-11.908-11.908-11.908-6.565 0-11.908 5.343-11.908 11.908 0 6.565 5.343 11.908 11.908 11.908zm0-21.17c5.107 0 9.262 4.155 9.262 9.262s-4.155 9.262-9.262 9.262-9.262-4.155-9.262-9.262 4.155-9.262 9.262-9.262zm0 48.956c4.378 0 7.939-3.56 7.939-7.939 0-4.378-3.56-7.939-7.939-7.939-4.378 0-7.939 3.56-7.939 7.939 0 4.378 3.56 7.939 7.939 7.939zm0-13.231c2.919 0 5.292 2.374 5.292 5.292 0 2.919-2.374 5.292-5.292 5.292-2.919 0-5.292-2.374-5.292-5.292 0-2.919 2.374-5.292 5.292-5.292zm0-21.17c2.919 0 5.292-2.374 5.292-5.292 0-2.919-2.374-5.292-5.292-5.292-2.919 0-5.292 2.374-5.292 5.292 0 2.919 2.374 5.292 5.292 5.292zm0-7.939c1.459 0 2.646 1.187 2.646 2.646 0 1.459-1.187 2.646-2.646 2.646-1.459 0-2.646-1.187-2.646-2.646 0-1.459 1.187-2.646 2.646-2.646z" fill="#fff"/></svg>