<svg width="70" height="70" viewBox="0 0 99 99" xmlns="http://www.w3.org/2000/svg"><title>icon-tariff-4</title><desc>Created with Sketch.</desc><path d="M79.703 23.036c-2.895 0-5.242 2.342-5.242 5.25v41.278c0 2.899 2.353 5.25 5.242 5.25 2.895 0 5.242-2.342 5.242-5.25v-41.278c0-2.899-2.353-5.25-5.242-5.25zm-60.14 17.009c-2.188 0-3.962 1.772-3.962 3.956v10.741c0 2.185 1.779 3.956 3.962 3.956 2.188 0 3.962-1.772 3.962-3.956v-10.741c0-2.185-1.779-3.956-3.962-3.956zm54.699-11.765l-50.737 15.095v11.932l51.235 14.913m-40.434-11.431l-1.335 4.428c-.35 1.161.306 2.391 1.454 2.745l10.84 3.341c1.153.355 2.355-.306 2.68-1.466l1.514-5.392" stroke="#555" stroke-width="3" fill="none"/></svg>