<?xml version="1.0" encoding="UTF-8"?>
<svg width="101px" height="101px" viewBox="0 0 101 101" version="1.1" xmlns="http://www.w3.org/2000/svg" xmlns:xlink="http://www.w3.org/1999/xlink">
    <!-- Generator: Sketch 46.1 (44463) - http://www.bohemiancoding.com/sketch -->
    <title>help-icon</title>
    <desc>Created with Sketch.</desc>
    <defs></defs>
    <g id="Page-1" stroke="none" stroke-width="1" fill="none" fill-rule="evenodd">
        <g id="misc-copy-2" transform="translate(-1415.000000, -701.000000)" fill-rule="nonzero" fill="#E35B5B">
            <g id="help-icon" transform="translate(1415.000000, 701.000000)">
                <path d="M93.0704792,77.0083132 C103.076507,60.8345051 103.076507,40.3154949 93.0704792,24.1416868 L94.0349156,23.1760863 C96.6871157,20.520685 96.6871157,16.1754828 94.0349156,13.5200815 L87.5249699,7.12297827 C84.8727697,4.46757695 80.5328059,4.46757695 77.8806058,7.12297827 L76.9161694,8.08857876 C60.7618596,-1.92952625 40.2675859,-1.92952625 24.1132761,8.08857876 L23.1488397,7.12297827 C20.4966395,4.46757695 16.1566757,4.46757695 13.5044756,7.12297827 L7.11508439,13.5200815 C4.46288427,16.1754828 4.46288427,20.520685 7.11508439,23.1760863 L8.0795208,24.1416868 C-1.92650693,40.3154949 -1.92650693,60.8345051 8.0795208,77.0083132 L7.11508439,77.9739137 C4.46288427,80.629315 4.46288427,84.9745172 7.11508439,87.6299185 L13.5044756,94.0270217 C16.1566757,96.6824231 20.4966395,96.6824231 23.1488397,94.0270217 L24.1132761,93.0614212 C40.2675859,103.079526 60.7618596,103.079526 76.9161694,93.0614212 L77.8806058,94.0270217 C80.5328059,96.6824231 84.8727697,96.6824231 87.5249699,94.0270217 L93.9143611,87.6299185 C96.5665612,84.9745172 96.5665612,80.629315 93.9143611,77.9739137 L93.0704792,77.0083132 Z M88.0071881,72.0596107 L77.8806058,61.9208057 C80.773915,54.6788021 80.773915,46.591898 77.8806058,39.3498944 L88.0071881,29.2110893 C95.6021248,42.3673959 95.6021248,58.7826041 88.0071881,72.0596107 Z M81.1355787,10.2611798 C81.9794605,9.41627942 83.4261151,9.41627942 84.3905515,10.2611798 L90.7799427,16.658283 C91.6238246,17.5031835 91.6238246,18.9515842 90.7799427,19.9171847 L71.4912146,39.2291943 C70.6473327,40.0740947 69.2006781,40.0740947 68.2362417,39.2291943 L61.8468505,32.8320911 C61.0029687,31.9871907 61.0029687,30.53879 61.8468505,29.5731895 L81.1355787,10.2611798 Z M58.5918776,65.0590072 C56.6630048,66.9902082 56.1807866,69.6456095 57.0246685,72.0596107 C56.9041139,72.0596107 56.9041139,72.1803108 56.7835594,72.1803108 C56.6630048,72.3010109 56.5424503,72.4217109 56.4218957,72.542411 C52.5641501,73.5080115 48.4652954,73.5080115 44.6075497,72.542411 C44.4869952,72.4217109 44.4869952,72.3010109 44.2458861,72.1803108 C44.1253315,72.1803108 44.1253315,72.0596107 44.004777,72.0596107 C44.8486588,69.6456095 44.2458861,66.8695081 42.4375678,65.0590072 L36.0481766,58.661904 C34.1193038,56.7307031 31.3465491,56.2479028 28.9354581,57.0928033 C28.8149036,56.9721032 28.8149036,56.8514031 28.694349,56.7307031 C28.694349,56.610003 28.5737945,56.610003 28.4532399,56.489303 C27.3682489,52.506201 27.4888035,48.4023989 28.5737945,44.4192969 C28.5737945,44.4192969 28.694349,44.2985969 28.694349,44.2985969 C28.694349,44.1778968 28.8149036,44.1778968 28.8149036,44.0571967 C31.2259946,45.0227972 34.1193038,44.4192969 36.0481766,42.488096 L42.4375678,36.0909928 C44.3664406,34.1597918 44.8486588,31.2629903 44.004777,28.8489891 C44.1253315,28.8489891 44.1253315,28.7282891 44.2458861,28.7282891 C48.2241863,27.6419885 52.5641501,27.5212885 56.5424503,28.7282891 C56.5424503,28.7282891 56.5424503,28.7282891 56.5424503,28.7282891 C56.6630048,28.8489891 56.7835594,28.8489891 56.9041139,28.9696892 C55.9396775,31.3836904 56.5424503,34.2804919 58.4713231,36.2116928 L64.8607143,42.608796 C66.7895871,44.539997 69.5623418,45.0227972 71.9734328,44.1778968 C71.9734328,44.1778968 71.9734328,44.2985969 72.0939873,44.2985969 C72.0939873,44.4192969 72.2145419,44.4192969 72.3350964,44.539997 C73.4200874,48.4023989 73.4200874,52.506201 72.455651,56.489303 C72.3350964,56.610003 72.2145419,56.610003 72.2145419,56.7307031 C72.0939873,56.8514031 72.0939873,56.9721032 71.9734328,57.0928033 C69.5623418,56.2479028 66.7895871,56.8514031 64.9812688,58.661904 L58.5918776,65.0590072 Z M71.9734328,13.0372812 L61.8468505,23.1760863 C54.6135775,20.2792849 46.5364225,20.2792849 39.3031495,23.1760863 L29.1765672,13.0372812 C42.3170133,5.43317743 58.7124322,5.43317743 71.9734328,13.0372812 Z M10.2495027,16.7789831 L16.6388939,10.3818799 C17.4827758,9.53697948 18.9294304,9.53697948 19.8938668,10.3818799 L39.1825949,29.6938896 C40.0264768,30.53879 40.0264768,31.9871907 39.1825949,32.9527912 L32.7932037,39.3498944 C31.9493219,40.1947948 30.5026673,40.1947948 29.5382309,39.3498944 L10.2495027,20.0378847 C9.40562086,19.0722842 9.40562086,17.6238835 10.2495027,16.7789831 Z M13.0222574,29.0903893 L23.1488397,39.2291943 C20.2555304,46.4711979 20.2555304,54.558102 23.1488397,61.8001056 L13.0222574,71.9389107 C5.42732068,58.7826041 5.42732068,42.3673959 13.0222574,29.0903893 Z M19.8938668,90.8888202 C19.0499849,91.7337206 17.6033303,91.7337206 16.6388939,90.8888202 L10.2495027,84.3710169 C9.40562086,83.5261165 9.40562086,82.0777158 10.2495027,81.1121153 L29.5382309,61.8001056 C30.3821127,60.9552052 31.8287673,60.9552052 32.7932037,61.8001056 L39.1825949,68.1972088 C40.0264768,69.0421092 40.0264768,70.49051 39.1825949,71.4561104 L19.8938668,90.8888202 Z M29.0560127,88.1127188 L39.1825949,77.9739137 C46.415868,80.8707151 54.4930229,80.8707151 61.726296,77.9739137 L71.8528782,88.1127188 C58.7124322,95.7168226 42.3170133,95.7168226 29.0560127,88.1127188 Z M90.7799427,84.3710169 L84.269997,90.8888202 C83.4261151,91.7337206 81.9794605,91.7337206 81.0150241,90.8888202 L61.726296,71.5768105 C60.8824141,70.7319101 60.8824141,69.2835094 61.726296,68.3179089 L68.1156872,61.9208057 C68.959569,61.0759053 70.4062236,61.0759053 71.37066,61.9208057 L90.6593882,81.2328153 C91.6238246,82.0777158 91.6238246,83.5261165 90.7799427,84.3710169 Z" id="Shape"></path>
            </g>
        </g>
    </g>
</svg>