<svg width="70" height="70" viewBox="0 0 99 99" xmlns="http://www.w3.org/2000/svg"><title>icon-tariff-4</title><desc>Created with Sketch.</desc><path d="M67.341 56.273l-2.319-4.692-.824-13.585c-.711-8.448-6.893-14.579-14.698-14.579-7.835 0-14.017 6.134-14.701 14.614l-.831 13.7-2.299 4.541c-2.442.451-4.299 2.593-4.299 5.164 0 2.898 2.357 5.255 5.255 5.255h10.288v2.171c0 3.632 2.955 6.587 6.587 6.587 3.633 0 6.587-2.955 6.587-6.587v-2.171h10.288c2.898 0 5.255-2.357 5.255-5.255 0-2.568-1.852-4.708-4.289-5.163zm-30.593-3.479c.091-.181.144-.377.157-.579l.848-13.976c.554-6.873 5.495-11.862 11.747-11.862 6.229 0 11.169 4.991 11.746 11.833l.839 13.849c.012.197.063.39.15.566l1.757 3.555h-28.959l1.714-3.386zm16.379 16.067c0 2-1.627 3.627-3.627 3.627-2 0-3.627-1.627-3.627-3.627v-2.171h7.253v2.171zm13.248-5.132h-33.75c-1.265 0-2.294-1.029-2.294-2.294 0-1.265 1.029-2.294 2.294-2.294h33.75c1.265 0 2.294 1.029 2.294 2.294 0 1.265-1.029 2.294-2.294 2.294z" fill="#555"/></svg>