<svg width="70" height="70" viewBox="0 0 99 99" xmlns="http://www.w3.org/2000/svg"><title>icon-tariff-4</title><desc>Created with Sketch.</desc><g fill="#555"><path d="M47.915 80.374h-32.459c-.853 0-1.546.691-1.546 1.546v6.183c0 .855.692 1.546 1.546 1.546h32.459c.853 0 1.546-.691 1.546-1.546v-6.183c0-.855-.692-1.546-1.546-1.546zm-1.546 6.183h-29.368v-3.091h29.368v3.091z"/><circle id="Oval" cx="55.644" cy="85.011" r="3.091"/><circle cx="64.918" cy="85.011" r="3.091"/><path d="M83.466 80.374h-10.82c-.853 0-1.546.691-1.546 1.546 0 .855.692 1.546 1.546 1.546h10.82c.853 0 1.546-.691 1.546-1.546 0-.855-.692-1.546-1.546-1.546zm0 6.183h-10.82c-.853 0-1.546.691-1.546 1.546 0 .855.692 1.546 1.546 1.546h10.82c.853 0 1.546-.691 1.546-1.546 0-.855-.692-1.546-1.546-1.546zm13.911-86.557h-15.457c-.853 0-1.546.691-1.546 1.546v38.642h-10.82v-3.091h4.637c.853 0 1.546-.691 1.546-1.546v-21.639c0-.855-.692-1.546-1.546-1.546h-49.461c-.853 0-1.546.691-1.546 1.546v21.639c0 .855.692 1.546 1.546 1.546h4.637v3.091h-10.82v-38.642c0-.855-.692-1.546-1.546-1.546h-15.457c-.853 0-1.546.691-1.546 1.546v86.557c0 .855.692 1.546 1.546 1.546v1.546c0 .855.692 1.546 1.546 1.546.853 0 1.546-.691 1.546-1.546v-1.546h3.091v3.091c0 1.705 1.386 3.091 3.091 3.091h3.091v1.546c0 .855.692 1.546 1.546 1.546h1.546c.853 0 1.546-.691 1.546-1.546v-1.546h61.826v1.546c0 .855.692 1.546 1.546 1.546h1.546c.853 0 1.546-.691 1.546-1.546v-1.546h3.091c1.705 0 3.091-1.386 3.091-3.091v-3.091h3.091v1.546c0 .855.692 1.546 1.546 1.546.853 0 1.546-.691 1.546-1.546v-1.546c.853 0 1.546-.691 1.546-1.546v-86.557c0-.855-.692-1.546-1.546-1.546zm-17.002 65.378c-1.725 2.615-4.577 4.176-7.728 4.176-5.115 0-9.274-4.159-9.274-9.274 0-5.115 4.159-9.274 9.274-9.274 3.153 0 6.003 1.561 7.728 4.176v10.195zm0-14.716c-2.17-1.736-4.887-2.747-7.728-2.747-6.818 0-12.365 5.547-12.365 12.365 0 6.818 5.547 12.365 12.365 12.365 2.839 0 5.558-1.011 7.728-2.748v4.294h-26.276v-30.913h26.276v7.384zm-54.098-35.206h46.37v18.548h-46.371v-18.548zm7.728 21.639h30.913v3.091h-12.365c-.853 0-1.546.691-1.546 1.546v32.459h-3.091v-32.459c0-.855-.692-1.546-1.546-1.546h-12.365v-3.091zm-3.091 6.183h13.911v30.913h-26.276v-4.292c2.17 1.736 4.889 2.747 7.728 2.747 6.818 0 12.365-5.547 12.365-12.365 0-6.818-5.547-12.365-12.365-12.365-2.839 0-5.558 1.011-7.728 2.747v-7.384h12.365zm-12.365 11.905c1.725-2.615 4.577-4.176 7.728-4.176 5.115 0 9.274 4.159 9.274 9.274 0 5.115-4.159 9.274-9.274 9.274-3.152 0-6.003-1.561-7.728-4.176v-10.195zm-15.457 31.374v-83.466h12.365v71.101h-4.637c-1.705 0-3.091 1.386-3.091 3.091v9.274h-4.637zm80.374 6.183h-72.647v-15.457h77.285l.002 10.812-.002.008.002.008v4.629h-4.639zm4.637-18.548h-4.637v-71.101h12.365v83.466h-4.637v-9.274c0-1.705-1.386-3.091-3.091-3.091zm-78.829-58.735c2.557 0 4.637-2.08 4.637-4.637 0-2.557-2.08-4.637-4.637-4.637-2.557 0-4.637 2.08-4.637 4.637 0 2.557 2.08 4.637 4.637 4.637zm0-6.183c.852 0 1.546.692 1.546 1.546 0 .853-.694 1.546-1.546 1.546-.852 0-1.546-.692-1.546-1.546 0-.853.694-1.546 1.546-1.546zm4.637 13.911c0-2.557-2.08-4.637-4.637-4.637-2.557 0-4.637 2.08-4.637 4.637 0 2.557 2.08 4.637 4.637 4.637 2.557 0 4.637-2.08 4.637-4.637zm-6.183 0c0-.853.694-1.546 1.546-1.546.852 0 1.546.692 1.546 1.546 0 .853-.694 1.546-1.546 1.546-.852 0-1.546-.692-1.546-1.546z"/><circle cx="9.274" cy="35.55" r="3.091"/><path d="M89.648 15.457c2.557 0 4.637-2.08 4.637-4.637 0-2.557-2.08-4.637-4.637-4.637-2.557 0-4.637 2.08-4.637 4.637 0 2.557 2.08 4.637 4.637 4.637zm0-6.183c.852 0 1.546.692 1.546 1.546 0 .853-.694 1.546-1.546 1.546-.852 0-1.546-.692-1.546-1.546 0-.853.694-1.546 1.546-1.546zm4.637 13.911c0-2.557-2.08-4.637-4.637-4.637-2.557 0-4.637 2.08-4.637 4.637 0 2.557 2.08 4.637 4.637 4.637 2.557 0 4.637-2.08 4.637-4.637zm-6.183 0c0-.853.694-1.546 1.546-1.546.852 0 1.546.692 1.546 1.546 0 .853-.694 1.546-1.546 1.546-.852 0-1.546-.692-1.546-1.546z"/><circle cx="89.648" cy="35.55" r="3.091"/><path d="M40.96 49.461c1.278 0 2.318-1.04 2.318-2.318s-1.04-2.318-2.318-2.318-2.318 1.04-2.318 2.318 1.04 2.318 2.318 2.318zm0-3.091c.427 0 .773.348.773.773 0 .425-.346.773-.773.773-.427 0-.773-.348-.773-.773 0-.425.346-.773.773-.773zm17.002-1.546c-1.278 0-2.318 1.04-2.318 2.318s1.04 2.318 2.318 2.318 2.318-1.04 2.318-2.318-1.04-2.318-2.318-2.318zm0 3.091c-.427 0-.773-.348-.773-.773 0-.425.346-.773.773-.773.427 0 .773.348.773.773 0 .425-.346.773-.773.773z"/><circle cx="26.276" cy="60.281" r="3.091"/><circle cx="72.646" cy="60.281" r="3.091"/><path d="M37.096 32.459c4.261 0 7.728-3.467 7.728-7.728 0-4.261-3.467-7.728-7.728-7.728-4.261 0-7.728 3.467-7.728 7.728 0 4.261 3.467 7.728 7.728 7.728zm0-12.365c2.557 0 4.637 2.08 4.637 4.637 0 2.557-2.08 4.637-4.637 4.637-2.557 0-4.637-2.08-4.637-4.637 0-2.557 2.08-4.637 4.637-4.637zm24.73 12.365c4.261 0 7.728-3.467 7.728-7.728 0-4.261-3.467-7.728-7.728-7.728-4.261 0-7.728 3.467-7.728 7.728 0 4.261 3.467 7.728 7.728 7.728zm0-12.365c2.557 0 4.637 2.08 4.637 4.637 0 2.557-2.08 4.637-4.637 4.637-2.557 0-4.637-2.08-4.637-4.637 0-2.557 2.08-4.637 4.637-4.637zm-12.365 7.728c.853 0 1.546-.691 1.546-1.546v-3.091c0-.855-.692-1.546-1.546-1.546-.853 0-1.546.691-1.546 1.546v3.091c0 .855.692 1.546 1.546 1.546z"/><circle cx="37.096" cy="24.731" r="1.546"/><circle cx="61.826" cy="24.731" r="1.546"/></g></svg>