<svg width="44" height="71" viewBox="0 0 44 71" xmlns="http://www.w3.org/2000/svg"><title>lightning-icon</title><desc>Created with Sketch.</desc><path d="M43 34.9c-.1-.3-.4-.6-.7-.7l-16.2-3.3 4.6-28.8c.1-.4-.2-.9-.6-1.1-.4-.2-.9-.1-1.2.3l-27.9 33.3c-.2.3-.3.6-.2.9.1.3.3.6.6.7l15.6 5.3-6 27.7c-.1.4.1.9.5 1.1.1.1.3.1.4.1.3 0 .6-.1.8-.3l30.1-34.2c.3-.3.4-.7.2-1zm-29.2 30.9l5.4-24.8c.1-.5-.2-1-.7-1.2l-15.1-5.2 24.7-29.4-4.1 26.3c-.1.5.3 1 .8 1.1l15.5 3.2-26.5 30z" fill-rule="nonzero" fill="#0275D8"/></svg>