<svg width="62" height="63" viewBox="0 0 62 63" xmlns="http://www.w3.org/2000/svg" xmlns:xlink="http://www.w3.org/1999/xlink"><title>Medal Icon</title><desc>Created with Sketch.</desc><defs><path d="M135.277 135.373h-132.066c-1.645 0-2.995 1.339-2.995 2.991v129.645c0 1.648 1.341 2.991 2.995 2.991h275.579c1.645 0 2.995-1.339 2.995-2.991v-129.645c0-1.648-1.341-2.991-2.995-2.991h-132.262c-.096-.286-.258-.555-.487-.784l-3.625-3.625c-.787-.787-2.049-.787-2.827-.009l-3.982 3.982c-.133.133-.243.28-.331.436z" id="b"/><filter x="-10.7%" y="-21.3%" width="121.3%" height="142.7%" filterUnits="objectBoundingBox" id="a"><feOffset in="SourceAlpha" result="shadowOffsetOuter1"/><feGaussianBlur stdDeviation="10" in="shadowOffsetOuter1" result="shadowBlurOuter1"/><feComposite in="shadowBlurOuter1" in2="SourceAlpha" operator="out" result="shadowBlurOuter1"/><feColorMatrix values="0 0 0 0 0 0 0 0 0 0 0 0 0 0 0 0 0 0 0.05 0" in="shadowBlurOuter1"/></filter></defs><g fill="none"><g transform="matrix(1 0 0 -1 -21 244.372)"><use fill="#000" filter="url(#a)" xlink:href="#b"/><use fill-opacity=".8" fill="#fff" xlink:href="#b"/><path stroke-opacity=".25" stroke="#ddd" d="M135.713 135.617l-.143.256h-132.359c-1.373 0-2.495 1.119-2.495 2.491v129.645c0 1.373 1.118 2.491 2.495 2.491h275.579c1.373 0 2.495-1.119 2.495-2.491v-129.645c0-1.373-1.118-2.491-2.495-2.491h-132.621l-.114-.341c-.074-.22-.198-.42-.366-.589l-3.625-3.625c-.591-.59-1.536-.593-2.12-.009l-3.982 3.982c-.099.099-.181.208-.248.327z"/></g><g transform="translate(1 1.037)" stroke-width="2" stroke="#0275D8"><ellipse cx="30" cy="42.128" rx="18.261" ry="17.872"/><ellipse cx="30" cy="42.128" rx="13.043" ry="12.766"/><path d="M26.434 37.504l3.566-2.278v13.284"/><path d="M35.217 24.255l14.348-24.255M24.783 24.255l-14.348-24.255M14.348 30.638l-14.348-24.255M45.652 30.638l14.348-24.255"/></g></g></svg>