<svg width="61" height="61" viewBox="0 0 61 61" xmlns="http://www.w3.org/2000/svg" xmlns:xlink="http://www.w3.org/1999/xlink"><title>rocket</title><desc>Created with Sketch.</desc><defs><path d="M135.277 5.373h-132.066c-1.645 0-2.995 1.339-2.995 2.991v129.645c0 1.648 1.341 2.991 2.995 2.991h275.579c1.645 0 2.995-1.339 2.995-2.991v-129.645c0-1.648-1.341-2.991-2.995-2.991h-132.262c-.096-.286-.258-.555-.487-.784l-3.625-3.625c-.787-.787-2.049-.787-2.827-.009l-3.982 3.982c-.133.133-.243.28-.331.436z" id="b"/><filter x="-10.7%" y="-21.3%" width="121.3%" height="142.7%" filterUnits="objectBoundingBox" id="a"><feOffset in="SourceAlpha" result="shadowOffsetOuter1"/><feGaussianBlur stdDeviation="10" in="shadowOffsetOuter1" result="shadowBlurOuter1"/><feComposite in="shadowBlurOuter1" in2="SourceAlpha" operator="out" result="shadowBlurOuter1"/><feColorMatrix values="0 0 0 0 0 0 0 0 0 0 0 0 0 0 0 0 0 0 0.05 0" in="shadowBlurOuter1"/></filter></defs><g fill="none"><g transform="matrix(1 0 0 -1 -21 117.372)"><use fill="#000" filter="url(#a)" xlink:href="#b"/><use fill-opacity=".8" fill="#fff" xlink:href="#b"/><path stroke-opacity=".25" stroke="#ddd" d="M135.713 5.617l-.143.256h-132.359c-1.373 0-2.495 1.119-2.495 2.491v129.645c0 1.373 1.118 2.491 2.495 2.491h275.579c1.373 0 2.495-1.119 2.495-2.491v-129.645c0-1.373-1.118-2.491-2.495-2.491h-132.621l-.114-.341c-.074-.22-.198-.42-.366-.589l-3.625-3.625c-.591-.591-1.536-.593-2.12-.009l-3.982 3.982c-.099.099-.181.208-.248.327z"/></g><path d="M59.134 1.719c-3.715-2.142-9.391-1.144-15.907 1.909-6.396 2.996-13.656 8.094-20.641 14.69-1.714-.979-3.752-1.29-5.764-.936-2.269.399-4.476 1.482-6.026 3.032l-5.389 5.39c-.368.381-.248 1.109.225 1.347l6.363 3.181c-1.352 2.18-2.106 3.136-3.705 5.801-.203.321-.154.778.112 1.048l15.57 15.57c.27.266.728.315 1.048.112 2.665-1.599 3.621-2.353 5.801-3.705l3.181 6.363c.239.473.968.594 1.347.225l5.39-5.39c1.55-1.55 2.632-3.757 3.032-6.026.354-2.012.043-4.05-.936-5.764 6.596-6.985 11.694-14.246 14.69-20.641 3.053-6.516 4.051-12.192 1.909-15.907-.028-.157-.228-.265-.299-.299zm-1.067 1.366c1.488 2.859.805 7.977-2.077 14.129-2.948 6.292-8.057 13.573-14.728 20.567-.272.284-.306.767-.075 1.085.976 1.319 1.239 3.228.898 5.165-.341 1.937-1.296 3.878-2.545 5.128l-4.547 4.547-3.069-6.138c-.212-.415-.801-.581-1.198-.337-2.772 1.663-3.656 2.369-6.045 3.836l-14.597-14.597c1.467-2.389 2.173-3.273 3.836-6.045.244-.397.078-.986-.337-1.198l-6.138-3.069 4.547-4.547c1.25-1.25 3.19-2.204 5.128-2.545 1.937-.341 3.846-.078 5.165.898.319.231.802.198 1.085-.075 6.993-6.671 14.275-11.78 20.567-14.728 4.814-2.111 10.264-3.923 14.129-2.077zm-10.143 10.143c-2.308-2.308-6.076-2.308-8.384 0-2.308 2.308-2.308 6.076 0 8.384 2.308 2.308 6.076 2.308 8.384 0 2.308-2.308 2.308-6.076 0-8.384zm-1.198 1.198c1.661 1.661 1.661 4.328 0 5.988-1.661 1.661-4.328 1.661-5.989 0-1.661-1.661-1.661-4.328 0-5.988 1.661-1.661 4.328-1.661 5.988 0zm-37.989 28.557c-.282-.212-.702-.22-.992-.019-.806.58-1.594 1.257-2.339 2.002-2.251 2.251-3.758 4.835-4.435 7.354-.675 2.52-.52 5.013.749 6.887.06.088.136.165.225.225 1.873 1.269 4.367 1.426 6.887.749 2.52-.677 5.103-2.184 7.354-4.435.745-.745 1.422-1.533 2.002-2.339.23-.319.195-.802-.079-1.085-.274-.283-.755-.333-1.081-.113-2.823 1.833-5.443 1.331-7.429-.655-1.986-1.986-2.488-4.606-.655-7.429.231-.57.081-.906-.206-1.142zm-2.377 3.5c-.337 2.334.371 4.6 2.04 6.269 1.669 1.669 3.935 2.377 6.269 2.04-1.986 1.894-4.228 3.203-6.307 3.761-2.109.567-3.955.365-5.296-.468-.833-1.341-1.035-3.187-.468-5.296.557-2.08 1.867-4.321 3.761-6.307z" fill-rule="nonzero" fill="#0275D8"/></g></svg>