<?xml version="1.0" encoding="UTF-8"?>
<svg width="238px" height="300px" viewBox="0 0 238 300" version="1.1" xmlns="http://www.w3.org/2000/svg" xmlns:xlink="http://www.w3.org/1999/xlink">
    <!-- Generator: Sketch 46.1 (44463) - http://www.bohemiancoding.com/sketch -->
    <title>shield</title>
    <desc>Created with Sketch.</desc>
    <defs></defs>
    <g id="Page-1" stroke="none" stroke-width="1" fill="none" fill-rule="evenodd">
        <g id="misc-copy-2" transform="translate(-1229.000000, -606.000000)" fill-rule="nonzero">
            <g id="shield" transform="translate(1229.000000, 606.000000)">
                <path d="M81.0588235,193.451327 L156.941176,193.451327 C169.147059,193.451327 179,183.512853 179,171.201011 L179,122.250316 C179,109.938475 169.147059,100 156.941176,100 L81.0588235,100 C68.8529412,100 59,109.938475 59,122.250316 L59,171.201011 C59,183.512853 68.8529412,193.451327 81.0588235,193.451327 Z M170.176471,171.201011 C170.176471,178.617783 164.294118,184.551201 156.941176,184.551201 L81.0588235,184.551201 C73.7058824,184.551201 67.8235294,178.617783 67.8235294,171.201011 L67.8235294,122.250316 C67.8235294,119.580278 68.7058824,117.058576 70.0294118,114.833544 L110.176471,150.43405 C112.676471,152.659081 115.764706,153.845765 119,153.845765 C122.088235,153.845765 125.323529,152.807417 127.676471,150.582385 L167.823529,114.981879 C169.147059,117.058576 170.029412,119.580278 170.029412,122.398651 L170.029412,171.201011 L170.176471,171.201011 Z M156.941176,108.900126 C158.264706,108.900126 159.588235,109.048462 160.764706,109.493468 L121.941176,143.758955 C120.323529,145.242309 117.823529,145.242309 116.058824,143.758955 L77.2352941,109.493468 C78.4117647,109.196797 79.7352941,108.900126 81.0588235,108.900126 L156.941176,108.900126 Z" id="Shape" fill="#4F90DE"></path>
                <path d="M119.3525,299.73375 C115.53125,299.73375 112.52375,298.2 111.9575,297.89625 C111.81125,297.8175 111.6725,297.73125 111.5375,297.64125 C107.9525,295.2675 104.3525,292.8975 100.75625,290.53125 C78.48875,275.88 55.46,260.73 37.6025,244.74375 C12.36125,222.1425 0.605,201.2175 0.605,178.89375 L0.605,46.545 C0.605,43.60875 2.87,41.16 5.8025,40.93875 C6.09125,40.91625 35.01875,38.595 53.86625,28.515 C58.1225,26.23875 62.6075,23.085 67.35875,19.74375 C80.345,10.6125 95.06375,0.27 114.6425,0.27 L123.3575,0.27 C142.94,0.27 157.655,10.61625 170.64125,19.74375 C175.3925,23.085 179.8775,26.235 184.1375,28.515 C202.98125,38.595 231.90875,40.92 232.1975,40.93875 C235.12625,41.16375 237.395,43.60875 237.395,46.545 L237.395,178.89375 C237.395,201.21375 225.63875,222.13875 200.40125,244.74375 C182.54,260.73 159.515,275.88 137.24375,290.53125 C133.6475,292.8975 130.0475,295.2675 126.4625,297.64125 C124.36625,299.02875 121.97375,299.73375 119.3525,299.73375 Z M117.4475,288.06 C117.785,288.2025 118.5875,288.48 119.3525,288.48 C119.91875,288.48 120.1625,288.31875 120.2525,288.255 C123.84125,285.8775 127.4525,283.5 131.06375,281.13 C152.99,266.7 175.6625,251.78625 192.8975,236.3625 C215.58125,216.045 226.145,197.78625 226.145,178.89375 L226.145,51.6225 C216.365,50.44125 194.86625,47.01375 178.83125,38.43375 C173.9675,35.835 169.2125,32.48625 164.1725,28.94625 C151.985,20.3775 139.38125,11.52 123.3575,11.52 L114.6425,11.52 C98.6225,11.52 86.015,20.3775 73.8275,28.94625 C68.7875,32.48625 64.0325,35.835 59.1725,38.43375 C43.13375,47.01 21.635,50.4375 11.855,51.6225 L11.855,178.89375 C11.855,197.78625 22.41875,216.045 45.10625,236.3625 C62.34125,251.78625 85.01375,266.70375 106.93625,281.13 C110.44625,283.44 113.9525,285.74625 117.4475,288.06 Z" id="Shape" fill="#9B9B9B"></path>
            </g>
        </g>
    </g>
</svg>