<svg width="65" height="65" viewBox="0 0 65 65" xmlns="http://www.w3.org/2000/svg"><title>third</title><desc>Created with Sketch.</desc><g fill-rule="nonzero" fill="none"><path d="M4.923 46.515c-4.774-9.491-5.168-19.066-.283-28.504 5.34-10.319 14.087-15.381 25.493-16.11v.829c0 9.378-.007 18.756.017 28.134.001.613-.187.921-.698 1.222-7.973 4.679-15.931 9.383-23.893 14.079l-.636.35zM56.602 49.147c-4.257 7.845-13.868 14.949-25.902 14.641-11.421-.292-20.425-7.438-24.264-14.638 1.963-1.161 3.925-2.323 5.889-3.482 6.168-3.639 12.34-7.27 18.497-10.927.503-.298.859-.336 1.385-.023 7.971 4.727 15.957 9.427 23.939 14.135l.456.294z" id="Shape" stroke="#0275D8" stroke-width="1.5"/><path d="M34.129.48c9.631-.274 20.833 4.763 26.707 16.003 5.278 10.099 4.794 20.239-.485 30.318l-2.728-1.603c-7.675-4.527-15.349-9.057-23.026-13.576-.305-.18-.497-.34-.497-.762.015-10.008.011-20.017.012-30.026l.017-.354z" fill="#0275D8"/></g></svg>