<svg width="425" height="417" viewBox="0 0 425 417" xmlns="http://www.w3.org/2000/svg"><title>Group</title><desc>Created with Sketch.</desc><g transform="translate(3 3)" fill="none"><circle fill="#FEE15F" cx="206" cy="200" r="200"/><path d="M49.434 83.512c-29.613 49.113-56.18 156.337-26.297 211.68 29.883 55.343 191.304 122.025 251.25 102.234 59.946-19.79 163.02-107.363 141.074-213.262-21.945-105.898-74.035-152.02-147.852-177.496-73.816-25.477-188.563 27.73-218.176 76.844z" stroke="#444" stroke-width="6" opacity=".7"/><path d="M379.07 317.55c29.613-49.113 56.18-156.337 26.297-211.68-29.883-55.343-191.304-122.025-251.25-102.234-59.946 19.79-163.02 107.363-141.074 213.262 21.945 105.898 74.035 152.02 147.852 177.496 73.816 25.477 188.563-27.73 218.176-76.844z" stroke="#E21A1A" stroke-width="6" opacity=".7"/><path d="M39.434 327.55c-29.613-49.113-56.18-156.337-26.297-211.68 29.883-55.343 191.304-122.025 251.25-102.234 59.946 19.79 163.02 107.363 141.074 213.262-21.945 105.898-74.035 152.02-147.852 177.496-73.816 25.477-188.563-27.73-218.176-76.844z" stroke="#1C99F9" stroke-width="5" opacity=".7"/></g></svg>