<?xml version="1.0" encoding="UTF-8"?>
<svg width="1260px" height="807px" viewBox="0 0 1260 807" version="1.1" xmlns="http://www.w3.org/2000/svg" xmlns:xlink="http://www.w3.org/1999/xlink">
    <!-- Generator: Sketch 49.2 (51160) - http://www.bohemiancoding.com/sketch -->
    <title>waves-4</title>
    <desc>Created with Sketch.</desc>
    <defs></defs>
    <g id="Welcome" stroke="none" stroke-width="1" fill="none" fill-rule="evenodd">
        <g id="fff" transform="translate(-210.000000, -77.000000)">
            <g id="waves-4" transform="translate(-521.000000, 77.000000)">
                <g id="Group" transform="translate(0.000000, 145.037221)" fill="#E8EAED">
                    <path d="M2742,171.681374 L2742,279.651307 C2516.25867,86.1280724 2251.82875,36.3556892 1948.71025,130.334157 C1494.03248,271.301858 1498.77741,605.402905 1033.29456,548.337267 C824.069935,522.687478 595.273965,384.46165 387.19183,356.759879 C248.470406,338.292031 119.406463,368.177814 4.35099913e-13,446.417228 L3.81398942e-13,317.864685 C119.406463,249.281748 248.470406,223.084533 387.19183,239.273039 C595.273965,263.555799 824.069935,384.721496 1033.29456,407.205532 C1498.77741,457.228007 1494.03248,164.362432 1948.71025,40.7932692 C2251.82875,-41.5861729 2516.25867,2.04319534 2742,171.681374 Z" id="Combined-Shape"></path>
                </g>
                <g id="Group" transform="translate(0.000000, 72.952854)" fill="#F1F1F1">
                    <path d="M2742,171.651053 L2742,279.601918 C2516.25867,86.1128614 2251.82875,36.3492684 1948.71025,130.311139 C1494.03248,271.253944 1498.77741,605.295986 1033.29456,548.240425 C824.069935,522.595166 595.273965,384.393751 387.19183,356.696871 C248.470406,338.232285 119.406463,368.11279 4.35099913e-13,446.338387 L3.81398942e-13,317.808548 C119.406463,249.237723 248.470406,223.045134 387.19183,239.230782 C595.273965,263.509252 824.069935,384.653551 1033.29456,407.133616 C1498.77741,457.147256 1494.03248,164.333404 1948.71025,40.7860648 C2251.82875,-41.5788284 2516.25867,2.04283449 2742,171.651053 Z" id="Combined-Shape"></path>
                </g>
                <g id="Group" fill="#E2EAF2">
                    <path d="M2742,171.681374 L2742,279.651307 C2516.25867,86.1280724 2251.82875,36.3556892 1948.71025,130.334157 C1494.03248,271.301858 1498.77741,605.402905 1033.29456,548.337267 C824.069935,522.687478 595.273965,384.46165 387.19183,356.759879 C248.470406,338.292031 119.406463,368.177814 4.35099913e-13,446.417228 L3.81398942e-13,317.864685 C119.406463,249.281748 248.470406,223.084533 387.19183,239.273039 C595.273965,263.555799 824.069935,384.721496 1033.29456,407.205532 C1498.77741,457.228007 1494.03248,164.362432 1948.71025,40.7932692 C2251.82875,-41.5861729 2516.25867,2.04319534 2742,171.681374 Z" id="Combined-Shape"></path>
                </g>
            </g>
        </g>
    </g>
</svg>