<?xml version="1.0" encoding="UTF-8"?>
<svg width="1440px" height="770px" viewBox="0 0 1440 770" version="1.1" xmlns="http://www.w3.org/2000/svg" xmlns:xlink="http://www.w3.org/1999/xlink">
    <!-- Generator: Sketch 49.2 (51160) - http://www.bohemiancoding.com/sketch -->
    <title>Group</title>
    <desc>Created with Sketch.</desc>
    <defs></defs>
    <g id="Welcome" stroke="none" stroke-width="1" fill="none" fill-rule="evenodd" opacity="0.6">
        <g id="Desktop-HD-2" transform="translate(0.000000, -138.000000)">
            <g id="Group" transform="translate(0.000000, 138.000000)">
                <path d="M0,2 L1440,2 L1440,586.226049 C1321.44876,456.983849 1182.57965,423.743952 1023.39269,486.506359 C784.612246,580.649968 787.104112,803.775396 542.649222,765.664785 C432.771957,748.534877 312.616525,656.222396 203.339254,637.722095 C130.487741,625.388562 62.7079894,645.347428 2.2849886e-13,697.598695 L0,2 Z" id="Mask" fill-opacity="0.5" fill="#78BDF8"></path>
                <path d="M0,2 L1440,2 L1440,513.197793 C1321.44876,400.110868 1182.57965,371.025958 1023.39269,425.943064 C784.612246,508.318722 787.104112,703.553472 542.649222,670.206687 C432.771957,655.218018 312.616525,574.444596 203.339254,558.256833 C130.487741,547.464992 62.7079894,564.929 2.2849886e-13,610.648858 L0,2 Z" id="Mask" fill-opacity="0.5" fill="#78BDF8"></path>
                <path d="M0,2 L1440,2 L1440,367.14128 C1321.44876,286.364905 1182.57965,265.58997 1023.39269,304.816474 C784.612246,363.65623 787.104112,503.109623 542.649222,479.290491 C432.771957,468.584298 312.616525,410.888997 203.339254,399.32631 C130.487741,391.617851 62.7079894,404.092143 2.2849886e-13,436.749184 L0,2 Z" id="Mask" fill-opacity="0.2" fill="#9013FE"></path>
                <path d="M0,2 L1440,2 L1440,440.169537 C1321.44876,343.237887 1182.57965,318.307964 1023.39269,365.379769 C784.612246,435.987476 787.104112,603.331547 542.649222,574.748589 C432.771957,561.901158 312.616525,492.666797 203.339254,478.791571 C130.487741,469.541421 62.7079894,484.510571 2.2849886e-13,523.699021 L0,2 Z" id="Mask" fill-opacity="0.2" fill="#9013FE"></path>
                <path d="M0,2 L1440,2 L1440,294.113024 C1321.44876,229.491924 1182.57965,212.871976 1023.39269,244.253179 C784.612246,291.324984 787.104112,402.887698 542.649222,383.832392 C432.771957,375.267439 312.616525,329.111198 203.339254,319.861048 C130.487741,313.694281 62.7079894,323.673714 2.2849886e-13,349.799347 L0,2 Z" id="Mask" fill-opacity="0.5" fill="#4F90DE" opacity="0.5"></path>
                <path d="M0,0 L1440,0 L1440,219.084768 C1321.44876,170.618943 1182.57965,158.153982 1023.39269,181.689884 C784.612246,216.993738 787.104112,300.665774 542.649222,286.374294 C432.771957,279.950579 312.616525,245.333398 203.339254,238.395786 C130.487741,233.770711 62.7079894,241.255286 2.2849886e-13,260.84951 L0,0 Z" id="Mask" fill="#FFFFFF"></path>
            </g>
        </g>
    </g>
</svg>