<svg width="81" height="106" viewBox="0 0 81 106" xmlns="http://www.w3.org/2000/svg">
    <path d="M75.513.355c-4.334-1.288-8.667.82-10.073 5.036-1.054 3.045-6.559 20.145-9.253 28.578-.351-.82-.82-1.64-1.405-2.342-1.757-1.991-4.334-3.162-7.496-3.397-2.928-.234-5.622.703-7.613 2.577-1.171 1.054-1.991 2.342-2.577 3.748-.468-.703-.937-1.405-1.64-1.991-1.757-1.64-4.334-2.342-7.262-2.108-2.694.234-5.036 1.405-6.559 3.279-.586.703-1.054 1.405-1.405 2.225-1.757-9.018-4.334-21.785-4.685-24.245-.703-4.802-4.685-6.793-8.199-6.442-2.928.351-6.91 3.162-6.442 8.199v2.108c3.162 31.74 3.631 39.471 3.631 40.29v15.929c0 8.901 3.748 17.334 10.424 23.659 6.442 6.442 15.226 9.955 24.362 9.955 23.073 0 33.38-17.217 33.38-34.317v-1.523c-.117-4.099-.468-7.027-.82-9.487-.234-1.757-.468-3.162-.468-4.568 0-3.279 8.199-41.696 9.136-45.21 1.288-4.919-1.523-8.901-5.036-9.955zm-36.074 37.479c.117-1.991.82-3.748 2.225-4.919 1.405-1.288 3.279-1.874 5.388-1.757 2.342.117 4.216.937 5.388 2.342 1.171 1.288 1.523 3.045 1.405 5.271-.234 2.694-.703 5.505-1.054 8.433-.468 3.162-.82 6.325-1.171 9.487l-.117.82c-4.802-.703-8.784-1.874-12.064-3.279v-4.919c-.117-3.631-.234-7.379 0-11.478zm-15.46-2.225c1.054-1.288 2.694-2.108 4.568-2.225 2.108-.117 3.865.351 5.036 1.405 1.171 1.054 1.757 2.46 1.757 4.451.117 2.46.117 4.919.117 7.613v5.388c-3.045-1.64-5.388-3.279-7.262-4.568-1.991-1.405-3.514-2.46-5.036-2.928-.234-1.64-.351-3.045-.586-4.568-.117-1.757.351-3.279 1.405-4.568zm38.651 56.922c-5.388 6.442-13.352 9.955-23.19 9.955-8.433 0-16.28-3.162-22.253-9.018-5.973-5.856-9.136-13.469-9.136-21.551v-16.046c0-1.405-1.288-14.758-3.865-40.642l-.234-2.108c-.351-3.279 2.46-4.802 3.865-4.919 2.108-.234 4.451.82 4.919 3.865.586 3.631 5.388 27.641 6.442 32.677-4.334.937-6.442 4.334-6.442 7.613 0 1.991 1.523 9.253 8.433 16.163 3.865 3.865 8.667 6.91 14.406 9.018 6.91 2.577 15.109 3.982 24.479 3.982.82 0 1.523-.703 1.523-1.523s-.703-1.523-1.523-1.523c-16.163 0-28.929-4.216-36.777-12.181-6.208-6.208-7.496-12.766-7.496-14.055 0-2.46 1.757-4.919 5.856-4.919.937 0 2.811 1.288 4.802 2.694 5.973 4.099 15.812 11.01 34.551 11.01 6.208 0 8.667 5.036 8.784 8.433v1.64c.117 8.199-2.46 15.812-7.145 21.434zm14.992-83.04c-.937 3.397-9.253 42.164-9.253 46.029 0 1.523.234 3.162.586 5.036 0 .234 0 .351.117.586-1.64-1.523-4.216-3.045-8.082-3.045-2.342 0-4.451-.117-6.559-.351 0-.234.117-.586.117-.937.351-3.045.703-6.325 1.171-9.37.234-2.108.586-4.099.82-6.09.468-.586.82-1.288 1.054-2.225.234-1.054 9.136-28.461 10.658-32.912.82-2.577 3.631-3.865 6.325-3.045 2.225.703 3.865 3.279 3.045 6.325z"
          fill="#FF5252" fill-rule="nonzero"/>
</svg>